<?xml version="1.0" encoding="UTF-8" standalone="no"?>
<!-- Created with Inkscape (http://www.inkscape.org/) -->

<svg
   version="1.1"
   id="svg1"
   width="371.64255"
   height="122.58193"
   viewBox="0 0 371.64255 122.58193"
   xml:space="preserve"
   xmlns="http://www.w3.org/2000/svg"
   xmlns:svg="http://www.w3.org/2000/svg"><defs
     id="defs1" /><g
     id="g1"
     transform="translate(-215.61991,-392.30896)"><path
       style="fill:#2b0000;stroke-width:0.314216"
       d="m 224.60793,514.35576 c -3.75349,-1.00937 -6.54457,-3.309 -8.1679,-6.7297 l -0.82012,-1.72819 v -49.02423 -49.02423 l 1.02878,-2.08974 c 1.28418,-2.60854 3.77945,-4.97759 6.19454,-5.88119 2.6735,-1.00029 25.80929,-5.56589 35.13446,-6.93341 4.11436,-0.60336 5.85679,-0.63611 33.84126,-0.63611 20.64807,0 30.00334,0.10604 31.16865,0.35329 3.61596,0.76723 6.68951,3.1624 8.3207,6.48422 l 0.88557,1.80341 v 47.28944 47.28944 l -0.88375,1.67798 c -1.61414,3.06478 -3.02883,4.25979 -7.72533,6.5257 -12.30565,5.93709 -21.07914,9.39416 -26.99637,10.63756 -3.34717,0.70335 -69.36059,0.69029 -71.98049,-0.0142 z m 74.07373,-3.04616 c 5.53497,-1.62024 19.11216,-7.32427 20.5708,-8.64217 0.74452,-0.67268 2.01764,-3.15355 2.59925,-5.06503 0.36848,-1.21098 0.43646,-8.72744 0.4195,-46.37803 -0.0118,-26.26542 -0.1429,-45.77284 -0.31547,-46.95477 -0.40149,-2.74978 -1.51822,-5.07008 -2.97498,-6.18127 l -1.19175,-0.90903 -34.64673,-0.0826 -34.64674,-0.0826 -11.8043,2.34648 c -6.49237,1.29057 -12.4119,2.61526 -13.15452,2.94375 -2.01249,0.89022 -3.5317,2.38486 -4.60283,4.52838 l -0.95736,1.91585 0.0138,47.94624 c 0.0114,39.53531 0.0885,48.1558 0.43992,49.14088 1.00401,2.81479 3.14254,4.84488 6.23903,5.92268 1.54414,0.53747 3.54293,0.5644 36.35479,0.48984 l 34.72081,-0.0789 z m -45.62235,-16.14394 c -0.11267,-1.84148 -0.20486,-9.32732 -0.20486,-16.6352 V 465.2434 l -1.33541,0.76353 c -0.73448,0.41995 -1.56623,0.76524 -1.84833,0.76732 -1.13242,0.008 -3.76899,-3.41183 -4.47822,-5.8092 -0.16925,-0.57211 -0.0384,-0.62843 1.45996,-0.62843 1.03088,0 2.5558,-0.33479 4.08105,-0.89597 l 2.43517,-0.89597 v -4.68136 c 0,-3.40234 -0.10188,-4.68135 -0.37287,-4.68135 -0.20508,0 -1.77349,0.65472 -3.48536,1.45494 -2.7926,1.3054 -3.27905,1.43736 -4.73314,1.28393 -2.83326,-0.29896 -6.17676,-1.65844 -6.17676,-2.5115 0,-0.22061 2.86659,-1.38847 6.67708,-2.72026 3.67239,-1.28353 7.00054,-2.44811 7.39589,-2.58795 0.71832,-0.25409 0.71876,-0.25832 0.65561,-6.30619 -0.0348,-3.32856 -0.16017,-7.76699 -0.27869,-9.86318 -0.22074,-3.90412 -0.25777,-4.03087 -2.44323,-8.3646 -0.21567,-0.42767 1.40613,-0.24564 3.45802,0.38813 2.73316,0.84418 5.65896,2.76984 6.26705,4.12473 0.41511,0.9249 0.43663,2.14625 0.16418,9.31573 -0.17245,4.5382 -0.23945,8.32537 -0.14889,8.41594 0.0906,0.0906 0.78921,0.0247 1.55252,-0.14635 0.76331,-0.17106 3.31569,-0.4817 5.67195,-0.69031 8.68341,-0.76877 15.01868,1.23383 15.01868,4.74744 0,1.71897 -1.52004,3.21512 -6.96084,6.8514 l -4.60422,3.07718 1.14428,0.6146 c 1.42576,0.76578 2.11667,2.04831 1.61172,2.99181 -0.56239,1.05083 -2.18405,1.52394 -6.9463,2.02651 -2.44635,0.25817 -4.97193,0.6264 -5.61238,0.81829 l -1.16447,0.34888 -0.21611,5.54126 c -0.37798,9.69182 -1.3387,17.22798 -2.86978,22.51141 -0.73084,2.522 -3.04574,8.01 -3.3787,8.01 -0.0714,0 -0.22193,-1.50667 -0.3346,-3.34815 z m 11.76465,-42.83712 c 3.71601,-2.78344 7.57427,-7.31041 7.00944,-8.22433 -0.48899,-0.79119 -7.01929,0.11718 -10.73079,1.49267 l -1.33542,0.49491 v 4.70686 4.70685 l 1.49253,-0.81258 c 0.82088,-0.44692 2.42479,-1.51089 3.56424,-2.36438 z m -25.63788,16.20947 c -1.96602,-0.62177 -3.03777,-1.28631 -4.44472,-2.75597 -2.75959,-2.88261 -3.88097,-6.65918 -4.08934,-13.77213 -0.0874,-2.98422 -0.0207,-5.04935 0.17236,-5.33256 0.17326,-0.25423 0.36371,-0.39563 0.42322,-0.31422 0.0595,0.0814 1.08987,2.26896 2.2897,4.86124 1.42797,3.08514 3.2789,6.35912 5.35836,9.478 3.7308,5.59561 4.05564,6.26406 3.61165,7.43186 -0.36625,0.9633 -1.22279,1.06743 -3.32123,0.40378 z"
       id="path1" /><path
       d="m 491.50202,490.20671 -1.37903,-1.37903 0.1259,-35.40876 0.12589,-35.40877 1.0675,-1.06767 1.0675,-1.06766 22.51251,-0.13037 22.51252,-0.13035 1.38349,1.38349 1.3835,1.38349 v 35.232 35.23199 l -1.37034,1.37033 -1.37033,1.37034 h -22.34004 -22.34004 z m 45.31139,-1.63023 c 0.88285,-0.64542 0.91378,-1.60032 1.03678,-32.00601 0.0697,-17.23743 -0.0357,-32.81274 -0.23439,-34.61182 l -0.36119,-3.27104 h -22.03352 -22.03352 l -0.1202,34.82227 -0.12021,34.82226 1.0578,0.42509 c 0.58179,0.2338 10.24695,0.43846 21.47813,0.4548 16.92836,0.0246 20.57594,-0.084 21.33032,-0.63555 z m -40.78646,-3.18943 c -0.64255,-0.91738 -0.72979,-4.7277 -0.72979,-31.87828 0,-30.21132 0.019,-30.85539 0.9376,-31.77397 0.90493,-0.90495 1.56266,-0.9376 18.88201,-0.9376 15.48238,0 18.08739,0.10013 18.98634,0.72978 l 1.0419,0.72977 V 453.567 c 0,29.73749 -0.043,31.34921 -0.8573,32.0861 -0.76698,0.69411 -2.7894,0.77586 -19.19415,0.77586 h -18.33683 z m 7.70858,-1.46715 c 0,-1.70428 -3.44604,-5.25249 -5.39117,-5.55103 -0.82516,-0.12662 -0.95485,0.15862 -1.08143,2.37863 -0.0791,1.38738 -0.033,2.81136 0.10248,3.16439 0.348,0.90687 6.37012,0.91443 6.37012,0.008 z m 21.28941,-0.95372 c 0.45396,-2.41982 3.70423,-5.83081 6.18948,-6.49551 l 2.05541,-0.54973 v -22.30786 -22.30786 l -2.08581,-0.55786 c -2.60242,-0.69606 -5.08761,-3.10811 -5.98925,-5.81301 l -0.67585,-2.02756 h -9.26329 -9.26328 l -0.5826,1.69467 c -1.15071,3.34721 -3.61112,5.57125 -7.417,6.70441 -0.76624,0.22814 -0.82039,1.70032 -0.82039,22.30409 v 22.05984 l 1.28919,0.46963 c 3.97537,1.44813 6.34234,3.79417 6.96399,6.90238 l 0.30239,1.51196 h 9.49959 9.49959 z m 8.14849,-1.78445 0.13802,-3.13762 -1.50228,0.43084 c -1.89655,0.54392 -3.63164,2.12792 -4.45974,4.07137 -0.35353,0.82968 -0.64279,1.63042 -0.64279,1.77941 0,0.14897 1.42398,0.20849 3.1644,0.13225 l 3.16439,-0.13861 z m -32.40672,-53.25966 c 1.31086,-0.92523 3.13374,-4.13477 2.72449,-4.79695 -0.3076,-0.4977 -4.39722,-0.62101 -5.5773,-0.16818 -0.57097,0.21911 -0.74154,0.98564 -0.74154,3.33241 v 3.04786 l 1.23322,-0.30952 c 0.67827,-0.17024 1.74078,-0.66777 2.36113,-1.10562 z m 32.50312,-1.68354 c 0,-2.30044 -0.17236,-3.06316 -0.74155,-3.28159 -1.10458,-0.42386 -5.2608,-0.34393 -5.53919,0.10654 -0.51386,0.83142 1.65352,4.14775 3.35549,5.13429 2.70862,1.57004 2.92525,1.42495 2.92525,-1.95924 z"
       style="fill:#2b0000;fill-opacity:1;stroke-width:0.468798"
       id="path1-1" /><path
       d="m 376.09205,482.71767 c -2.40346,-2.11027 -4.71583,-6.14874 -3.83306,-6.69431 0.31519,-0.1948 1.89114,0.0373 3.50213,0.51566 2.26557,0.6728 3.06224,0.70934 3.51706,0.16131 0.46978,-0.56604 3.02897,-8.81043 3.02897,-9.75777 0,-0.46525 -6.63417,0.54468 -7.84909,1.19488 -1.03991,0.55655 -1.43876,0.41345 -2.5954,-0.93123 -1.5597,-1.81326 -1.77458,-3.60228 -0.49178,-4.09454 0.48117,-0.18464 1.23741,-1.20963 1.68053,-2.27777 0.74691,-1.80036 0.7022,-2.06673 -0.61283,-3.65093 -0.78021,-0.93988 -1.20426,-1.9184 -0.94236,-2.17448 0.26189,-0.2561 2.73506,-0.68298 5.49592,-0.94864 l 5.01972,-0.48301 0.18556,-2.59098 0.18556,-2.59097 -2.91036,0.38606 c -2.17559,0.28861 -3.088,0.17202 -3.61401,-0.4618 -0.60007,-0.72302 -1.47149,-0.50706 -5.9182,1.46671 -5.10125,2.26432 -7.71219,2.86291 -7.71219,1.76816 0,-0.30053 2.59106,-2.27834 5.75792,-4.39512 8.40963,-5.62113 8.14716,-5.36472 6.83908,-6.68127 -0.59463,-0.59848 -2.12657,-2.36787 -3.40431,-3.93197 -1.83078,-2.2411 -2.14958,-2.95111 -1.5042,-3.34998 1.82066,-1.12523 8.74585,1.55919 9.27867,3.5967 0.41194,1.57528 0.78423,1.43256 2.84447,-1.09052 2.78268,-3.40782 4.53116,-6.04401 3.99849,-6.02851 -0.26573,0.008 -2.73288,0.5089 -5.48256,1.11372 -2.74969,0.60481 -5.30034,0.98419 -5.6681,0.84307 -0.93136,-0.3574 -3.38529,-3.76462 -2.99351,-4.15641 0.17659,-0.17657 3.4806,-0.77987 7.34227,-1.34065 4.74248,-0.68868 7.8053,-1.46027 9.43713,-2.37742 2.12369,-1.19357 2.62964,-1.26928 4.1829,-0.6259 2.39251,0.99101 3.83646,2.70063 3.4687,4.10695 -0.28254,1.08041 0.97991,2.72633 2.94047,3.83362 0.9656,0.54535 4.30154,-4.10984 4.30154,-6.00263 0,-1.30857 0.18523,-1.42456 1.76914,-1.10778 2.95023,0.59005 4.81235,2.13281 4.61007,3.81943 -0.13735,1.14527 -1.04774,1.96334 -3.95899,3.55751 l -3.78062,2.07023 1.71367,1.37123 c 0.94252,0.75418 1.99374,1.37255 2.33602,1.37417 1.0549,0.004 4.2931,-3.74403 4.71583,-5.45971 0.54621,-2.21681 2.14083,-2.0922 4.83621,0.37792 1.97834,1.81303 2.10293,2.10107 1.32007,3.05204 -0.47544,0.57756 -2.41772,1.75706 -4.31618,2.62113 l -3.45173,1.57104 3.82256,1.82594 c 2.1024,1.00426 5.82985,2.66157 8.28322,3.68291 4.94978,2.0606 6.48009,3.3099 5.09954,4.16311 -0.91946,0.56827 -5.14937,1.16205 -9.55908,1.34187 -1.54032,0.0629 -2.72927,0.24708 -2.64211,0.40949 0.0872,0.1624 0.6787,1.31883 1.31454,2.56985 l 1.15605,2.27458 -1.31547,1.06521 c -2.46729,1.99788 -10.3167,2.20826 -12.86513,0.3448 -0.70044,-0.51217 -1.13505,-1.93675 -1.38323,-4.53411 -0.19903,-2.083 -0.5612,-3.72084 -0.80481,-3.63964 -0.2436,0.0812 -0.94484,0.14764 -1.55831,0.14764 -0.82248,0 -1.22277,0.58155 -1.52434,2.21458 -0.22493,1.21803 -1.11442,3.33592 -1.97665,4.70645 -1.54143,2.45011 -4.99289,4.92658 -5.7755,4.14397 -0.21947,-0.21947 0.19482,-1.77951 0.92066,-3.46676 1.08536,-2.52299 1.28201,-3.89762 1.10744,-7.74152 l -0.21225,-4.6738 1.77816,0.4013 c 2.51133,0.56678 7.90473,0.36317 9.23472,-0.34862 0.82059,-0.43916 1.67381,-0.33683 3.18984,0.38258 1.13829,0.54015 2.21778,1.22182 2.39887,1.51483 0.18107,0.29301 -0.13083,1.73741 -0.69312,3.20977 -0.92984,2.43472 -0.9383,2.7611 -0.0935,3.60591 1.49844,1.49844 3.6625,0.57938 4.41589,-1.87541 0.63902,-2.0821 0.62752,-2.10226 -2.99681,-5.25353 -2.00105,-1.73988 -5.85804,-5.12442 -8.57109,-7.52118 -7.3756,-6.51579 -6.39022,-6.33701 -10.12638,-1.8373 -1.78644,2.15151 -4.70081,5.09445 -6.4764,6.53985 l -3.22832,2.62801 2.63777,-0.38733 c 2.07495,-0.30467 3.0473,-0.13591 4.55709,0.79093 2.21077,1.35717 2.23634,1.47369 0.98202,4.47567 -0.63974,1.53114 -0.81665,3.04752 -0.5573,4.77698 0.43383,2.89294 0.38808,2.91947 -5.73905,3.32896 -1.86726,0.12479 -3.49784,0.33793 -3.62351,0.47364 -0.12568,0.13571 -0.41796,1.39316 -0.64953,2.79431 l -0.42101,2.54756 2.27286,-0.41071 c 1.25008,-0.22588 2.73553,-0.64953 3.30101,-0.94145 1.20252,-0.62077 3.68496,0.48768 5.44315,2.43047 0.90218,0.99688 1.01316,1.49934 0.50934,2.30609 -0.3543,0.56732 -1.21072,3.09654 -1.90315,5.62048 -1.58288,5.76964 -3.04702,8.65577 -5.39217,10.62909 -2.36318,1.98848 -3.02635,1.95148 -5.60513,-0.31271 z m 29.63896,-2.92161 -4.037,-3.67652 -3.93552,2.11016 c -3.88948,2.08547 -9.34145,3.98914 -11.42464,3.98914 -1.43651,0 -1.37573,-1.59629 0.0783,-2.0578 1.51726,-0.48156 9.57413,-5.76357 10.4824,-6.87215 0.69953,-0.85381 -0.36416,-1.94207 -5.43384,-5.55934 -1.02243,-0.72951 -1.06209,-0.92648 -0.29529,-1.46594 1.32888,-0.93487 4.58336,-0.23761 6.8069,1.45837 1.08495,0.82754 2.16039,1.50461 2.38987,1.50461 0.53191,0 1.78676,-1.58892 2.9782,-3.77107 l 0.93044,-1.70412 -5.89177,0.41771 -5.89179,0.41771 -1.29342,-1.81645 c -1.57917,-2.21772 -1.76873,-2.13865 7.05826,-2.94435 3.73527,-0.34096 7.48564,-0.78105 8.33416,-0.97799 1.1954,-0.27745 2.02645,0.0666 3.69098,1.52808 2.33752,2.05237 2.6259,2.9944 1.26296,4.12555 -0.48688,0.40408 -2.10763,2.44769 -3.60165,4.54138 -3.23156,4.52863 -3.6639,3.91227 6.11094,8.71209 3.65406,1.79429 6.64375,3.50422 6.64375,3.79984 0,0.88536 -1.82134,1.34489 -6.49612,1.63898 l -4.42917,0.27864 z"
       style="fill:#2b0000;fill-opacity:1;stroke-width:0.590556"
       id="path1-14" /><path
       style="fill:#2b0000;stroke-width:0.314216"
       d="m 350.44176,514.35576 c -3.75349,-1.00937 -6.54457,-3.309 -8.1679,-6.7297 l -0.82012,-1.72819 v -49.02423 -49.02423 l 1.02878,-2.08974 c 1.28418,-2.60854 3.77945,-4.97759 6.19454,-5.88119 2.6735,-1.00029 25.80929,-5.56589 35.13446,-6.93341 4.11436,-0.60336 5.85679,-0.63611 33.84126,-0.63611 20.64807,0 30.00334,0.10604 31.16865,0.35329 3.61596,0.76723 6.68951,3.1624 8.3207,6.48422 l 0.88557,1.80341 v 47.28944 47.28944 l -0.88375,1.67798 c -1.61414,3.06478 -3.02883,4.25979 -7.72533,6.5257 -12.30565,5.93709 -21.07914,9.39416 -26.99637,10.63756 -3.34717,0.70335 -69.36059,0.69029 -71.98049,-0.0142 z m 74.07373,-3.04616 c 5.53497,-1.62024 19.11216,-7.32427 20.5708,-8.64217 0.74452,-0.67268 2.01764,-3.15355 2.59925,-5.06503 0.36848,-1.21098 0.43646,-8.72744 0.4195,-46.37803 -0.0118,-26.26542 -0.1429,-45.77284 -0.31547,-46.95477 -0.40149,-2.74978 -1.51822,-5.07008 -2.97498,-6.18127 l -1.19175,-0.90903 -34.64673,-0.0826 -34.64674,-0.0826 -11.8043,2.34648 c -6.49237,1.29057 -12.4119,2.61526 -13.15452,2.94375 -2.01249,0.89022 -3.5317,2.38486 -4.60283,4.52838 l -0.95736,1.91585 0.0138,47.94624 c 0.0114,39.53531 0.0885,48.1558 0.43992,49.14088 1.00401,2.81479 3.14254,4.84488 6.23903,5.92268 1.54414,0.53747 3.54293,0.5644 36.35479,0.48984 l 34.72081,-0.0789 z"
       id="path3" /><path
       style="fill:#2b0000;stroke-width:0.314216"
       d="m 479.67651,514.35576 c -3.75349,-1.00937 -6.54457,-3.309 -8.1679,-6.7297 l -0.82012,-1.72819 v -49.02423 -49.02423 l 1.02878,-2.08974 c 1.28418,-2.60854 3.77945,-4.97759 6.19454,-5.88119 2.6735,-1.00029 25.80929,-5.56589 35.13446,-6.93341 4.11436,-0.60336 5.85679,-0.63611 33.84126,-0.63611 20.64807,0 30.00334,0.10604 31.16865,0.35329 3.61596,0.76723 6.68951,3.1624 8.3207,6.48422 l 0.88557,1.80341 v 47.28944 47.28944 l -0.88375,1.67798 c -1.61414,3.06478 -3.02883,4.25979 -7.72533,6.5257 -12.30565,5.93709 -21.07914,9.39416 -26.99637,10.63756 -3.34717,0.70335 -69.36059,0.69029 -71.98049,-0.0142 z m 74.07373,-3.04616 c 5.53497,-1.62024 19.11216,-7.32427 20.5708,-8.64217 0.74452,-0.67268 2.01764,-3.15355 2.59925,-5.06503 0.36848,-1.21098 0.43646,-8.72744 0.4195,-46.37803 -0.0118,-26.26542 -0.1429,-45.77284 -0.31547,-46.95477 -0.40149,-2.74978 -1.51822,-5.07008 -2.97498,-6.18127 l -1.19175,-0.90903 -34.64673,-0.0826 -34.64674,-0.0826 -11.8043,2.34648 c -6.49237,1.29057 -12.4119,2.61526 -13.15452,2.94375 -2.01249,0.89022 -3.5317,2.38486 -4.60283,4.52838 l -0.95736,1.91585 0.0138,47.94624 c 0.0114,39.53531 0.0885,48.1558 0.43992,49.14088 1.00401,2.81479 3.14254,4.84488 6.23903,5.92268 1.54414,0.53747 3.54293,0.5644 36.35479,0.48984 l 34.72081,-0.0789 z"
       id="path4" /></g></svg>
