<?xml version="1.0" encoding="UTF-8" standalone="no"?>
<!-- Created with Inkscape (http://www.inkscape.org/) -->

<svg
   version="1.1"
   id="svg1"
   width="116.57396"
   height="122.58193"
   viewBox="0 0 116.57396 122.58193"
   xml:space="preserve"
   xmlns="http://www.w3.org/2000/svg"
   xmlns:svg="http://www.w3.org/2000/svg"><defs
     id="defs1" /><g
     id="g1"
     transform="translate(-215.61991,-392.30896)"><path
       style="fill:#2b0000;stroke-width:0.314216"
       d="m 224.60793,514.35576 c -3.75349,-1.00937 -6.54457,-3.309 -8.1679,-6.7297 l -0.82012,-1.72819 v -49.02423 -49.02423 l 1.02878,-2.08974 c 1.28418,-2.60854 3.77945,-4.97759 6.19454,-5.88119 2.6735,-1.00029 25.80929,-5.56589 35.13446,-6.93341 4.11436,-0.60336 5.85679,-0.63611 33.84126,-0.63611 20.64807,0 30.00334,0.10604 31.16865,0.35329 3.61596,0.76723 6.68951,3.1624 8.3207,6.48422 l 0.88557,1.80341 v 47.28944 47.28944 l -0.88375,1.67798 c -1.61414,3.06478 -3.02883,4.25979 -7.72533,6.5257 -12.30565,5.93709 -21.07914,9.39416 -26.99637,10.63756 -3.34717,0.70335 -69.36059,0.69029 -71.98049,-0.0142 z m 74.07373,-3.04616 c 5.53497,-1.62024 19.11216,-7.32427 20.5708,-8.64217 0.74452,-0.67268 2.01764,-3.15355 2.59925,-5.06503 0.36848,-1.21098 0.43646,-8.72744 0.4195,-46.37803 -0.0118,-26.26542 -0.1429,-45.77284 -0.31547,-46.95477 -0.40149,-2.74978 -1.51822,-5.07008 -2.97498,-6.18127 l -1.19175,-0.90903 -34.64673,-0.0826 -34.64674,-0.0826 -11.8043,2.34648 c -6.49237,1.29057 -12.4119,2.61526 -13.15452,2.94375 -2.01249,0.89022 -3.5317,2.38486 -4.60283,4.52838 l -0.95736,1.91585 0.0138,47.94624 c 0.0114,39.53531 0.0885,48.1558 0.43992,49.14088 1.00401,2.81479 3.14254,4.84488 6.23903,5.92268 1.54414,0.53747 3.54293,0.5644 36.35479,0.48984 l 34.72081,-0.0789 z m -45.62235,-16.14394 c -0.11267,-1.84148 -0.20486,-9.32732 -0.20486,-16.6352 V 465.2434 l -1.33541,0.76353 c -0.73448,0.41995 -1.56623,0.76524 -1.84833,0.76732 -1.13242,0.008 -3.76899,-3.41183 -4.47822,-5.8092 -0.16925,-0.57211 -0.0384,-0.62843 1.45996,-0.62843 1.03088,0 2.5558,-0.33479 4.08105,-0.89597 l 2.43517,-0.89597 v -4.68136 c 0,-3.40234 -0.10188,-4.68135 -0.37287,-4.68135 -0.20508,0 -1.77349,0.65472 -3.48536,1.45494 -2.7926,1.3054 -3.27905,1.43736 -4.73314,1.28393 -2.83326,-0.29896 -6.17676,-1.65844 -6.17676,-2.5115 0,-0.22061 2.86659,-1.38847 6.67708,-2.72026 3.67239,-1.28353 7.00054,-2.44811 7.39589,-2.58795 0.71832,-0.25409 0.71876,-0.25832 0.65561,-6.30619 -0.0348,-3.32856 -0.16017,-7.76699 -0.27869,-9.86318 -0.22074,-3.90412 -0.25777,-4.03087 -2.44323,-8.3646 -0.21567,-0.42767 1.40613,-0.24564 3.45802,0.38813 2.73316,0.84418 5.65896,2.76984 6.26705,4.12473 0.41511,0.9249 0.43663,2.14625 0.16418,9.31573 -0.17245,4.5382 -0.23945,8.32537 -0.14889,8.41594 0.0906,0.0906 0.78921,0.0247 1.55252,-0.14635 0.76331,-0.17106 3.31569,-0.4817 5.67195,-0.69031 8.68341,-0.76877 15.01868,1.23383 15.01868,4.74744 0,1.71897 -1.52004,3.21512 -6.96084,6.8514 l -4.60422,3.07718 1.14428,0.6146 c 1.42576,0.76578 2.11667,2.04831 1.61172,2.99181 -0.56239,1.05083 -2.18405,1.52394 -6.9463,2.02651 -2.44635,0.25817 -4.97193,0.6264 -5.61238,0.81829 l -1.16447,0.34888 -0.21611,5.54126 c -0.37798,9.69182 -1.3387,17.22798 -2.86978,22.51141 -0.73084,2.522 -3.04574,8.01 -3.3787,8.01 -0.0714,0 -0.22193,-1.50667 -0.3346,-3.34815 z m 11.76465,-42.83712 c 3.71601,-2.78344 7.57427,-7.31041 7.00944,-8.22433 -0.48899,-0.79119 -7.01929,0.11718 -10.73079,1.49267 l -1.33542,0.49491 v 4.70686 4.70685 l 1.49253,-0.81258 c 0.82088,-0.44692 2.42479,-1.51089 3.56424,-2.36438 z m -25.63788,16.20947 c -1.96602,-0.62177 -3.03777,-1.28631 -4.44472,-2.75597 -2.75959,-2.88261 -3.88097,-6.65918 -4.08934,-13.77213 -0.0874,-2.98422 -0.0207,-5.04935 0.17236,-5.33256 0.17326,-0.25423 0.36371,-0.39563 0.42322,-0.31422 0.0595,0.0814 1.08987,2.26896 2.2897,4.86124 1.42797,3.08514 3.2789,6.35912 5.35836,9.478 3.7308,5.59561 4.05564,6.26406 3.61165,7.43186 -0.36625,0.9633 -1.22279,1.06743 -3.32123,0.40378 z"
       id="path1" /></g></svg>
